# xmcd
#
# Track frame offsets:
#	150
#	15555
#	27727
#	48687
#	64915
#	78790
#	96717
#	112675
#	129930
#	142740
#
# Disc length: 2096 seconds
#
# Revision: 1
# Processed by: cddbd v1.5PL3 Copyright (c) Steve Scherf et al.
# Submitted via: CDex 1.50Beta5
#
DISCID=7f082e0a
DTITLE=石川ひとみ - くるみ割り人形
DYEAR=1990
DGENRE=Pop
TTITLE0=くるみ割り人形
TTITLE1=アリスのひとりごと
TTITLE2=サムシング・フォーリン・ダウン
TTITLE3=雨に誘われて
TTITLE4=ピピッと第六感
TTITLE5=右向け右
TTITLE6=フェミニン
TTITLE7=ショッキング・ブルー
TTITLE8=この窓をあけて
TTITLE9=タイト・ロープ
EXTD=
EXTT0=
EXTT1=
EXTT2=
EXTT3=
EXTT4=
EXTT5=
EXTT6=
EXTT7=
EXTT8=
EXTT9=
PLAYORDER=
